<?xml version="1.0" standalone="no"?>
<!DOCTYPE svg PUBLIC "-//W3C//DTD SVG 20010904//EN"
 "http://www.w3.org/TR/2001/REC-SVG-20010904/DTD/svg10.dtd">
<svg version="1.0" xmlns="http://www.w3.org/2000/svg"
 width="82.000000pt" height="88.000000pt" viewBox="0 0 82.000000 88.000000"
 preserveAspectRatio="xMidYMid meet">

<g transform="translate(0.000000,88.000000) scale(0.100000,-0.100000)"
fill="#000000" stroke="none">
<path d="M345 868 c-3 -7 -6 -79 -7 -160 l-3 -148 -134 77 c-150 85 -138 85
-182 1 l-19 -37 73 -42 c39 -23 101 -59 136 -79 73 -44 85 -28 -94 -131 -61
-34 -112 -64 -114 -65 -4 -3 58 -114 64 -114 2 0 58 32 124 70 66 39 127 73
135 76 14 5 16 -12 16 -150 l0 -156 65 0 65 0 0 155 c0 85 3 155 8 155 4 0 65
-34 137 -75 101 -58 132 -72 141 -62 17 18 58 96 53 101 -2 2 -64 39 -137 81
l-133 77 126 73 c70 40 131 77 137 83 10 10 -40 112 -55 112 -5 0 -67 -34
-138 -75 -71 -41 -131 -75 -134 -75 -3 0 -5 72 -5 160 l0 160 -60 0 c-39 0
-62 -4 -65 -12z"/>
</g>
</svg>
