<?xml version="1.0" encoding="utf-8"?>
<!-- Generator: Adobe Illustrator 27.9.0, SVG Export Plug-In . SVG Version: 6.00 Build 0)  -->
<svg version="1.1" xmlns="http://www.w3.org/2000/svg" xmlns:xlink="http://www.w3.org/1999/xlink" x="0px" y="0px"
	 viewBox="0 0 1920 1080" style="enable-background:new 0 0 1920 1080;" xml:space="preserve">
<style type="text/css">
	.st0{display:none;}
	.st1{display:inline;fill:#FFFFFF;}
	.st2{fill:#FFFFFF;}
</style>
<g id="UENCE" class="st0">
	<path class="st1" d="M891.03,583.51c0,24.96-16.09,39.41-43.35,39.41s-43.35-14.45-43.35-39.41v-99.51h-62.07v101.81
		c0,54.85,38.75,89.65,105.42,89.65c66.34,0,105.42-34.81,105.42-89.65V484.01h-62.07V583.51z"/>
	<polygon class="st1" points="976.12,672.51 1170.22,672.51 1170.22,620.95 1037.21,620.95 1037.21,600.92 1155.11,600.92 
		1155.11,552.97 1037.21,552.97 1037.21,535.24 1170.22,535.24 1170.22,484.01 976.12,484.01 	"/>
	<polygon class="st1" points="1359.94,592.05 1256.49,484.01 1194.42,484.01 1194.42,672.51 1255.18,672.51 1255.18,557.9 
		1364.86,672.51 1420.69,672.51 1420.69,484.01 1359.94,484.01 	"/>
	<path class="st1" d="M1438.17,578.26c0,55.5,52.88,97.54,123.16,97.54c32.84,0,62.4-7.22,79.47-14.12V601.9
		c-12.48,10.84-42.37,21.35-79.47,21.35c-40.4,0-60.1-22.66-60.1-44.99c0-22.33,19.7-44.99,60.1-44.99
		c37.11,0,66.99,10.18,79.47,21.35v-60.1c-17.08-6.57-46.64-13.79-79.47-13.79C1491.05,480.72,1438.17,522.76,1438.17,578.26z"/>
	<polygon class="st1" points="1859.62,535.24 1859.62,484.01 1665.54,484.01 1665.54,672.51 1859.62,672.51 1859.62,620.95 
		1726.62,620.95 1726.62,600.92 1844.52,600.92 1844.52,552.97 1726.62,552.97 1726.62,535.24 	"/>
</g>
<g id="_x2A_">
	<polygon class="st2" points="742.26,424.73 735.88,413.68 708.04,429.76 708.04,397.62 695.29,397.62 695.29,429.76 667.46,413.68 
		661.07,424.73 688.92,440.81 661.07,456.9 667.46,467.94 695.29,451.86 695.29,484.01 708.04,484.01 708.04,451.86 735.88,467.94 
		742.26,456.9 714.42,440.81 	"/>
</g>
<g id="SEQ" class="st0">
	<path class="st1" d="M175.65,552.97c-44.34-4.6-52.87-4.27-52.87-11.5c0-7.55,11.49-7.88,35.8-7.88c29.55,0,69.95,6.57,86.04,18.06
		V493.2c-19.38-7.88-56.49-12.48-82.1-12.48c-56.16,0-102.14,23.32-102.14,63.38c0,41.38,43.35,50.58,85.71,55.83
		c42.04,5.25,57.15,3.28,57.15,13.46c0,8.21-15.11,8.87-40.07,8.87c-26.93,0-73.89-5.25-96.55-24.63v60.1
		c23.32,12.48,66.34,18.06,93.27,18.06c58.78,0,108.7-21.02,108.7-64.7C268.59,566.44,219.33,557.9,175.65,552.97z"/>
	<polygon class="st1" points="285.14,672.51 479.23,672.51 479.23,620.95 346.23,620.95 346.23,600.92 464.13,600.92 464.13,552.97 
		346.23,552.97 346.23,535.24 479.23,535.24 479.23,484.01 285.14,484.01 	"/>
	<path class="st1" d="M607.28,480.72c-66.01,0-118.55,41.38-118.55,97.54c0,56.16,52.55,97.54,118.55,97.54
		c9.85,0,19.38-0.98,28.24-2.63c0,0,5.01-0.93,12.35-3.09l77.96,12.3v-35.61l-22.44-10.22c14.08-16,22.44-36.05,22.44-58.3
		C725.83,522.1,673.29,480.72,607.28,480.72z M551.78,578.26c0-24.63,21.02-44.99,55.5-44.99c34.81,0,55.5,20.36,55.5,44.99
		c0,24.3-20.69,44.99-55.5,44.99C572.8,623.25,551.78,602.56,551.78,578.26z"/>
</g>
</svg>
